<svg width="23" height="33" viewBox="0 0 23 33" fill="none" xmlns="http://www.w3.org/2000/svg">
<path d="M0.279376 16.1834C2.81326 13.6254 5.42942 11.0694 7.96883 8.51148C8.14742 8.33188 8.24674 8.08908 8.24674 7.83574V0.960485C8.24674 0.106659 9.27916 -0.320755 9.88266 0.282742C12.3067 2.70676 14.7307 5.13079 17.1547 7.55481C17.5285 7.92855 17.529 8.53405 17.1567 8.90879C14.2993 11.7838 11.4428 14.6568 8.58537 17.5318C8.40527 17.7129 8.16046 17.8148 7.90511 17.8148H0.96063C0.109814 17.8148 -0.320109 16.7879 0.278874 16.1829" fill="#9E38D0"/>
<g style="mix-blend-mode:hard-light">
<path d="M17.1567 8.9092C14.3008 11.7827 11.4448 14.6577 8.58637 17.5312C8.40627 17.7133 8.16096 17.8152 7.90612 17.8152H3.11426C3.3691 17.8152 3.61441 17.7133 3.79451 17.5312C6.65247 14.6577 9.50842 11.7827 12.3649 8.9092C12.7386 8.53346 12.7366 7.92796 12.3629 7.55422L8.24725 3.4386V0.959894C8.24725 0.107071 9.27866 -0.320343 9.88216 0.281147L17.1547 7.55372C17.5285 7.92746 17.5305 8.53346 17.1567 8.9087V8.9092Z" fill="#9E38D0"/>
</g>
<g style="mix-blend-mode:soft-light">
<path d="M0.278886 16.1838C2.81277 13.6248 5.42943 11.0699 7.96934 8.5109C8.14743 8.33281 8.24726 8.08901 8.24726 7.83617V3.43912L12.3629 7.55474C12.7366 7.92848 12.7386 8.53448 12.3649 8.90972C9.50893 11.7832 6.65298 14.6583 3.79452 17.5318C3.61443 17.7139 3.36911 17.8157 3.11427 17.8157H0.961645C0.110327 17.8157 -0.318591 16.7883 0.279388 16.1843" fill="#9E38D0"/>
</g>
<path style="mix-blend-mode:soft-light" d="M0.278886 16.1838C2.81277 13.6248 5.42943 11.0699 7.96934 8.5109C8.14743 8.33281 8.24726 8.08901 8.24726 7.83617V3.43912L12.3629 7.55474C12.7366 7.92848 12.7386 8.53448 12.3649 8.90972C9.50893 11.7832 6.65298 14.6583 3.79452 17.5318C3.61443 17.7139 3.36911 17.8157 3.11427 17.8157H0.961645C0.110327 17.8157 -0.318591 16.7883 0.279388 16.1843" fill="#9E38D0"/>
<path d="M21.9504 16.0872C19.4165 18.6452 16.8004 21.2012 14.261 23.7591C14.0824 23.9387 13.983 24.1815 13.983 24.4349V31.3101C13.983 32.164 12.9506 32.5914 12.3471 31.9879C9.9231 29.5638 7.49908 27.1398 5.07505 24.7158C4.70132 24.3421 4.70082 23.7366 5.07305 23.3618C7.9305 20.4868 10.787 17.6138 13.6444 14.7388C13.8245 14.5577 14.0693 14.4558 14.3247 14.4558H21.2692C22.12 14.4558 22.5499 15.4827 21.9509 16.0877L21.9504 16.0872Z" fill="#9E38D0"/>
<g style="mix-blend-mode:hard-light">
<path d="M5.07276 23.361C7.92871 20.4875 10.7847 17.6125 13.6431 14.739C13.8232 14.5569 14.0685 14.455 14.3234 14.455H19.1152C18.8604 14.455 18.6151 14.5569 18.435 14.739C15.577 17.6125 12.7211 20.4875 9.86462 23.361C9.49088 23.7368 9.49289 24.3423 9.86662 24.716L13.9822 28.8316V31.3103C13.9822 32.1632 12.9508 32.5906 12.3473 31.9891L5.07477 24.7165C4.70103 24.3428 4.69902 23.7368 5.07276 23.3615V23.361Z" fill="#9E38D0"/>
</g>
<g style="mix-blend-mode:soft-light">
<path d="M9.86464 23.361C12.7206 20.4875 15.5765 17.6125 18.435 14.739C18.6151 14.5569 18.8604 14.455 19.1153 14.455H21.2679C22.1192 14.455 22.5481 15.4824 21.9501 16.0864C19.4163 18.6454 16.7996 21.2004 14.2597 23.7593C14.0816 23.9374 13.9818 24.1812 13.9818 24.4341V28.8311L9.86615 24.7155C9.49241 24.3418 9.4904 23.7358 9.86414 23.3605L9.86464 23.361Z" fill="#9E38D0"/>
</g>
<path style="mix-blend-mode:soft-light" d="M9.86464 23.361C12.7206 20.4875 15.5765 17.6125 18.435 14.739C18.6151 14.5569 18.8604 14.455 19.1153 14.455H21.2679C22.1192 14.455 22.5481 15.4824 21.9501 16.0864C19.4163 18.6454 16.7996 21.2004 14.2597 23.7593C14.0816 23.9374 13.9818 24.1812 13.9818 24.4341V28.8311L9.86615 24.7155C9.49241 24.3418 9.4904 23.7358 9.86414 23.3605L9.86464 23.361Z" fill="#9E38D0"/>
</svg>
