<svg width="148" height="46" viewBox="0 0 148 46" fill="none" xmlns="http://www.w3.org/2000/svg">
<path d="M77.9779 11.5577C77.9779 13.2155 76.6369 14.5504 74.9728 14.5504C73.3086 14.5504 71.9686 13.2155 71.9686 11.5577C71.9686 9.8999 73.2629 8.565 74.9728 8.565C76.684 8.611 77.9779 9.94636 77.9779 11.5577ZM65.59 17.59V18.3269C65.59 18.3269 64.1577 16.4842 61.1069 16.4842C56.0692 16.4842 52.1397 20.3063 52.1397 25.6012C52.1397 30.8506 56.023 34.7182 61.1069 34.7182C64.2038 34.7182 65.59 32.8304 65.59 32.8304V33.6129C65.59 33.9813 65.868 34.2569 66.2374 34.2569H69.9808V16.9433H66.2374C65.868 16.9447 65.59 17.2676 65.59 17.59ZM65.59 28.6864C64.8974 29.6997 63.5103 30.5746 61.8466 30.5746C58.8886 30.5746 56.6233 28.7328 56.6233 25.6012C56.6233 22.4701 58.8886 20.6283 61.8466 20.6283C63.4646 20.6283 64.9436 21.5492 65.59 22.5161V28.6864ZM72.7546 16.9447H77.1915V34.2582H72.7546V16.9447ZM139.037 16.4838C135.986 16.4838 134.553 18.3265 134.553 18.3265V8.611H130.116V34.2582H133.86C134.23 34.2582 134.506 33.9358 134.506 33.6133V32.8309C134.506 32.8309 135.94 34.7187 138.989 34.7187C144.028 34.7187 147.957 30.852 147.957 25.6026C147.957 20.3532 144.028 16.4838 139.037 16.4838ZM138.297 30.5282C136.586 30.5282 135.246 29.6542 134.553 28.6404V22.4701C135.246 21.5492 136.725 20.5823 138.297 20.5823C141.255 20.5823 143.52 22.4241 143.52 25.5552C143.52 28.6864 141.255 30.5282 138.297 30.5282ZM127.805 23.9903V34.3043H123.367V24.4963C123.367 21.6421 122.443 20.4903 119.948 20.4903C118.608 20.4903 117.221 21.1812 116.341 22.1945V34.2587H111.905V16.9451H115.417C115.787 16.9451 116.064 17.2676 116.064 17.59V18.3269C117.359 16.9911 119.069 16.4842 120.778 16.4842C122.72 16.4842 124.338 17.0376 125.632 18.1425C127.203 19.4318 127.805 21.0892 127.805 23.9903ZM101.134 16.4838C98.0844 16.4838 96.6511 18.3265 96.6511 18.3265V8.611H92.2141V34.2582H95.9575C96.3274 34.2582 96.6049 33.9358 96.6049 33.6133V32.8309C96.6049 32.8309 98.0382 34.7187 101.088 34.7187C106.127 34.7187 110.055 30.852 110.055 25.6026C110.101 20.3527 106.173 16.4838 101.134 16.4838ZM100.395 30.5282C98.6846 30.5282 97.3446 29.6542 96.6511 28.6404V22.4701C97.3446 21.5492 98.8236 20.5823 100.395 20.5823C103.353 20.5823 105.618 22.4241 105.618 25.5552C105.618 28.6864 103.353 30.5282 100.395 30.5282ZM88.3774 16.4838C89.7174 16.4838 90.411 16.7147 90.411 16.7147V20.8123C90.411 20.8123 86.7133 19.5689 84.4027 22.1941V34.3038H79.9648V16.9447H83.7091C84.079 16.9447 84.3556 17.2671 84.3556 17.5896V18.3265C85.1886 17.3591 86.9912 16.4838 88.3774 16.4838ZM42.2951 32.6924C42.0643 32.14 41.8329 31.5415 41.6021 31.0346C41.2317 30.2062 40.8619 29.4228 40.5391 28.6864L40.4929 28.6404C37.3032 21.7332 33.8834 14.7349 30.2776 7.82856L30.1391 7.55164C29.7599 6.83519 29.3903 6.11371 29.0304 5.38739C28.5678 4.55803 28.106 3.68404 27.3663 2.85467C25.8873 1.01287 23.7609 -0.000488281 21.4965 -0.000488281C19.185 -0.000488281 17.1053 1.01288 15.5806 2.76222C14.887 3.59067 14.3782 4.46557 13.9164 5.29494C13.5557 6.0208 13.1861 6.74227 12.8077 7.45919L12.6688 7.7361C9.10959 14.6424 5.64322 21.6412 2.45391 28.5479L2.40728 28.6395C2.08405 29.3773 1.71373 30.1597 1.34386 30.9877C1.11299 31.4946 0.882112 32.0471 0.651237 32.6455C0.0500373 34.3489 -0.135134 35.9607 0.0966652 37.6189C0.605053 41.0726 2.91565 43.9723 6.10543 45.2626C7.30737 45.7695 8.55548 45.9995 9.84931 45.9995C10.2192 45.9995 10.6809 45.9535 11.0513 45.9071C12.5769 45.7231 14.1482 45.2171 15.6738 44.3422C17.5689 43.2828 19.3715 41.7639 21.4051 39.5537C23.4386 41.7639 25.2875 43.2828 27.1363 44.3422C28.6624 45.2171 30.2333 45.7231 31.7585 45.9071C32.1283 45.954 32.591 45.9995 32.9609 45.9995C34.2551 45.9995 35.549 45.7695 36.7043 45.2626C39.9402 43.9723 42.2046 41.0266 42.7135 37.6189C43.0806 36.0076 42.8959 34.3967 42.2951 32.6924ZM21.4499 35.0867C18.9537 31.9555 17.3357 29.0088 16.7816 26.523C16.5507 25.4637 16.5041 24.5428 16.6431 23.7139C16.7349 22.977 17.0129 22.3321 17.3828 21.7796C18.261 20.5372 19.74 19.7538 21.4503 19.7538C23.1611 19.7538 24.6863 20.4907 25.5184 21.7796C25.8882 22.3321 26.1653 22.9774 26.2586 23.7139C26.3966 24.5432 26.3504 25.5097 26.1196 26.523C25.5632 28.9628 23.9452 31.91 21.4499 35.0867ZM39.8913 37.251C39.5681 39.6452 37.9501 41.7179 35.6856 42.6388C34.5765 43.0988 33.3741 43.2373 32.1731 43.0988C31.0178 42.9603 29.8616 42.5919 28.6606 41.9019C26.9964 40.9801 25.3327 39.5537 23.3911 37.4349C26.4414 33.7058 28.2903 30.2977 28.9838 27.2595C29.3075 25.8317 29.3541 24.5428 29.2147 23.345C29.0304 22.1941 28.6139 21.1347 27.967 20.2138C26.5333 18.1411 24.1294 16.9447 21.4494 16.9447C18.7694 16.9447 16.3655 18.188 14.9327 20.2138C14.2858 21.1347 13.8693 22.1941 13.6846 23.345C13.4999 24.5428 13.5456 25.8777 13.9155 27.2595C14.6086 30.2977 16.5036 33.7514 19.5078 37.481C17.6127 39.5992 15.9024 41.027 14.2382 41.9479C13.0363 42.6388 11.8815 43.0073 10.7262 43.1448C9.47853 43.2833 8.27613 43.0988 7.21318 42.6848C4.94875 41.7639 3.33078 39.6912 3.00755 37.2969C2.86902 36.146 2.96091 34.9952 3.42359 33.7058C3.56165 33.2449 3.79345 32.7849 4.02432 32.2325C4.34801 31.4956 4.71695 30.7122 5.08727 29.9297L5.13392 29.8382C8.32277 22.977 11.743 15.9782 15.3021 9.16391L15.4406 8.887C15.811 8.19701 16.1808 7.46011 16.5502 6.7692C16.9201 6.0323 17.3357 5.34139 17.8445 4.74248C18.8151 3.6385 20.1089 3.03913 21.5422 3.03913C22.9755 3.03913 24.2693 3.6385 25.2399 4.74248C25.7488 5.34277 26.1643 6.03368 26.5342 6.7692C26.9045 7.46011 27.2744 8.19701 27.6433 8.887L27.7823 9.16391C31.2872 16.0065 34.662 22.9145 37.9048 29.8842V29.9302C38.2751 30.668 38.5984 31.496 38.9682 32.2338C39.1991 32.7854 39.4305 33.2454 39.569 33.7063C39.9379 34.9022 40.0764 36.0541 39.8913 37.251Z" fill="#DADCE0"/>
</svg>
