<svg width="118" height="37" viewBox="0 0 118 37" fill="none" xmlns="http://www.w3.org/2000/svg">
<g clip-path="url(#clip0_3734_54)">
<path d="M73.1887 28.9056C66.3397 34.1501 56.4125 36.9482 47.8654 36.9482C35.8809 36.9482 25.0918 32.3433 16.9295 24.6844C16.2882 24.0821 16.8628 23.2613 17.6323 23.7303C26.4411 29.0548 37.3328 32.258 48.5836 32.258C56.1714 32.258 64.5184 30.6271 72.1934 27.2427C73.3528 26.731 74.3225 28.0315 73.1887 28.9056Z" fill="#DADCE0"/>
<path d="M76.036 25.5211C75.1638 24.3592 70.249 24.9722 68.0429 25.244C67.3708 25.3293 67.2682 24.7217 67.8736 24.2846C71.7881 21.4225 78.2112 22.2486 78.9603 23.208C79.7093 24.1727 78.7653 30.8616 75.0869 34.0541C74.5225 34.5445 73.9838 34.2833 74.2352 33.6331C75.0612 31.4905 76.9133 26.6884 76.036 25.5211Z" fill="#DADCE0"/>
<path d="M68.1969 4.07938V1.29722C68.1969 0.876168 68.5047 0.593689 68.8741 0.593689H80.8636C81.2484 0.593689 81.5562 0.881498 81.5562 1.29722V3.67964C81.5511 4.07938 81.2279 4.6017 80.6533 5.42781L74.4405 14.643C76.7491 14.5844 79.186 14.9415 81.2792 16.1674C81.7512 16.4445 81.8794 16.8496 81.9154 17.2493V20.218C81.9154 20.6231 81.4844 21.0974 81.0329 20.8523C77.3442 18.8429 72.4448 18.6244 68.3662 20.8736C67.9506 21.1081 67.5145 20.6391 67.5145 20.234V17.4145C67.5145 16.9615 67.5197 16.1887 67.9557 15.5011L75.1536 4.77758H68.8895C68.5047 4.77758 68.1969 4.4951 68.1969 4.07938Z" fill="#DADCE0"/>
<path d="M24.4608 21.4385H20.8131C20.4643 21.4119 20.1872 21.14 20.1616 20.7936V1.34517C20.1616 0.956098 20.4745 0.646967 20.8644 0.646967H24.2659C24.6198 0.662946 24.902 0.945435 24.9277 1.2972V3.83952H24.9944C25.8819 1.38248 27.5493 0.236572 29.7963 0.236572C32.0793 0.236572 33.5056 1.38248 34.5316 3.83952C35.4141 1.38248 37.42 0.236572 39.5696 0.236572C41.0985 0.236572 42.7709 0.892137 43.7919 2.36316C44.9462 3.99941 44.7102 6.3765 44.7102 8.46045L44.7051 20.735C44.7051 21.1241 44.3921 21.4385 44.0022 21.4385H40.3597C39.9954 21.4119 39.703 21.1081 39.703 20.735V10.4271C39.703 9.60636 39.7748 7.55972 39.6004 6.78156C39.3285 5.47577 38.5128 5.10801 37.4559 5.10801C36.5735 5.10801 35.6501 5.72093 35.2755 6.70162C34.901 7.6823 34.9369 9.32388 34.9369 10.4271V20.735C34.9369 21.1241 34.624 21.4385 34.2341 21.4385H30.5915C30.2222 21.4119 29.9349 21.1081 29.9349 20.735L29.9297 10.4271C29.9297 8.25792 30.2735 5.06537 27.6827 5.06537C25.0611 5.06537 25.1637 8.17797 25.1637 10.4271V20.735C25.1637 21.1241 24.8507 21.4385 24.4608 21.4385Z" fill="#DADCE0"/>
<path d="M91.8785 0.236572C97.2909 0.236572 100.22 5.06537 100.22 11.2053C100.22 17.1374 96.9831 21.8436 91.8785 21.8436C86.5634 21.8436 83.6699 17.0148 83.6699 10.9974C83.6699 4.94278 86.5993 0.236572 91.8785 0.236572ZM91.9092 4.20727C89.2209 4.20727 89.0516 8.01275 89.0516 10.3845C89.0516 12.7616 89.0157 17.8356 91.8785 17.8356C94.7053 17.8356 94.8386 13.7423 94.8386 11.2479C94.8386 9.60636 94.772 7.64499 94.2948 6.08869C93.8844 4.73492 93.0687 4.20727 91.9092 4.20727Z" fill="#DADCE0"/>
<path d="M107.239 21.4385H103.606C103.242 21.4119 102.95 21.1081 102.95 20.735L102.945 1.28121C102.975 0.924116 103.278 0.646967 103.647 0.646967H107.028C107.346 0.662946 107.608 0.886809 107.68 1.19061V4.16463H107.747C108.768 1.50506 110.199 0.236572 112.718 0.236572C114.354 0.236572 115.95 0.8495 116.976 2.52838C117.93 4.08469 117.93 6.70162 117.93 8.58304V20.8256C117.889 21.1667 117.587 21.4385 117.227 21.4385H113.569C113.236 21.4119 112.959 21.156 112.923 20.8256V10.2619C112.923 8.13534 113.159 5.02273 110.64 5.02273C109.753 5.02273 108.937 5.64099 108.532 6.57903C108.018 7.76758 107.952 8.9508 107.952 10.2619V20.735C107.947 21.1241 107.629 21.4385 107.239 21.4385Z" fill="#DADCE0"/>
<path d="M58.6391 12.1487V11.3279C56.0021 11.3279 53.2163 11.9142 53.2163 15.144C53.2163 16.7803 54.032 17.8889 55.4326 17.8889C56.4587 17.8889 57.377 17.2333 57.9567 16.1674C58.675 14.8562 58.6391 13.625 58.6391 12.1487ZM62.3175 21.3852C62.0764 21.6091 61.7275 21.6251 61.4556 21.4758C60.2449 20.4312 60.0294 19.9462 59.3624 18.9495C57.3616 21.0708 55.9456 21.705 53.3497 21.705C50.2818 21.705 47.891 19.7383 47.891 15.7996C47.891 12.7243 49.4968 10.6297 51.7798 9.60638C53.7601 8.70031 56.5254 8.54042 58.6391 8.28992V7.79958C58.6391 6.89884 58.7058 5.83288 58.1979 5.05473C57.7515 4.35652 56.8999 4.06872 56.1508 4.06872C54.7605 4.06872 53.519 4.80956 53.2163 6.34454C53.1547 6.68565 52.9136 7.02143 52.5853 7.03741L49.0453 6.64301C48.7478 6.57372 48.4194 6.32322 48.5015 5.84887C49.3173 1.39316 53.1906 0.0500488 56.6588 0.0500488C58.4338 0.0500488 60.7528 0.54039 62.1533 1.9368C63.9284 3.65832 63.7591 5.95546 63.7591 8.45514V14.3606C63.7591 16.1354 64.4671 16.9135 65.1341 17.8729C65.37 18.214 65.4214 18.6244 65.1238 18.8802C64.3799 19.5251 63.0563 20.7243 62.3278 21.3959L62.3175 21.3852Z" fill="#DADCE0"/>
<path d="M10.8193 12.1487V11.3279C8.18227 11.3279 5.39651 11.9142 5.39651 15.144C5.39651 16.7803 6.21223 17.8889 7.61281 17.8889C8.63887 17.8889 9.5572 17.2333 10.1369 16.1674C10.8552 14.8562 10.8193 13.625 10.8193 12.1487ZM14.4977 21.3852C14.2566 21.6091 13.9077 21.6251 13.6358 21.4758C12.4251 20.4312 12.2096 19.9462 11.5426 18.9495C9.54181 21.0708 8.12584 21.705 5.52989 21.705C2.46196 21.705 0.071228 19.7383 0.071228 15.7996C0.071228 12.7243 1.67702 10.6297 3.96002 9.60638C5.94032 8.70031 8.70557 8.54042 10.8193 8.28992V7.79958C10.8193 6.89884 10.886 5.83288 10.3781 5.05473C9.93172 4.35652 9.08008 4.06872 8.33105 4.06872C6.94074 4.06872 5.6992 4.80956 5.39651 6.34454C5.33494 6.68565 5.09382 7.02143 4.76548 7.03741L1.22555 6.64301C0.927992 6.57372 0.599651 6.32322 0.681736 5.84887C1.49746 1.39316 5.37085 0.0500488 8.83896 0.0500488C10.614 0.0500488 12.933 0.54039 14.3335 1.9368C16.1086 3.65832 15.9393 5.95546 15.9393 8.45514V14.3606C15.9393 16.1354 16.6473 16.9135 17.3143 17.8729C17.5503 18.214 17.6016 18.6244 17.304 18.8802C16.5601 19.5251 15.2365 20.7243 14.508 21.3959L14.4977 21.3852Z" fill="#DADCE0"/>
</g>
<defs>
<clipPath id="clip0_3734_54">
<rect width="118" height="37" fill="white"/>
</clipPath>
</defs>
</svg>
