<svg width="110" height="32" viewBox="0 0 110 32" fill="none" xmlns="http://www.w3.org/2000/svg">
<g clip-path="url(#clip0_3734_67)">
<path fill-rule="evenodd" clip-rule="evenodd" d="M76.033 23.357C74.383 25.127 72.264 26.026 69.736 26.026C67.207 26.026 65.088 25.127 63.439 23.357C61.864 21.671 60.959 18.975 60.959 15.963C60.959 13.023 61.874 10.364 63.466 8.666C65.132 6.896 67.241 5.993 69.734 5.986C72.231 5.993 74.34 6.896 76.005 8.666C77.599 10.364 78.512 13.023 78.512 15.963C78.512 18.975 77.608 21.671 76.033 23.357ZM53.893 15.963C53.893 16.099 53.899 16.233 53.903 16.367C51.373 14.064 47.715 13.207 45.48 12.76C41.345 11.888 38.186 11.09 38.186 8.146C38.186 6.069 40.046 4.558 43.619 4.817C46.884 5.054 48.259 7.05 48.636 8.976C48.69 9.292 48.836 9.522 49.196 9.525L55.068 9.575C55.096 9.575 55.12 9.572 55.145 9.57C54.317 11.501 53.893 13.651 53.893 15.963ZM43.906 26.765C41.066 26.765 37.937 25.756 37.216 21.852C37.155 21.479 36.979 21.325 36.693 21.317L31.016 21.241V11.206C31.762 14.147 34.233 16.183 39.577 17.386C43.154 18.242 49.359 18.786 49.359 22.458C49.359 25.018 47.474 26.825 43.906 26.765ZM15.63 26.03C11.05 26.03 6.854 22.425 6.854 15.967C6.854 10.9 10 5.99 15.66 5.99C18.112 5.99 24.329 6.83 24.329 15.967C24.329 25.128 17.838 26.03 15.629 26.03H15.63ZM85.409 13.502C86.712 15.24 89.064 16.527 92.885 17.387C96.461 18.243 102.667 18.787 102.667 22.459C102.667 25.019 100.781 26.826 97.214 26.766C94.375 26.766 91.244 25.757 90.524 21.853C90.464 21.48 90.288 21.326 90.001 21.318L84.741 21.248C85.296 19.611 85.579 17.838 85.579 15.964C85.5787 15.1404 85.5219 14.3178 85.409 13.502ZM96.826 31.876C103.125 31.876 110.549 29.531 109.968 21.925C109.326 15.173 102.3 13.463 98.788 12.761C94.652 11.889 91.493 11.091 91.493 8.147C91.493 6.07 93.353 4.559 96.927 4.818C100.192 5.055 101.567 7.051 101.944 8.977C101.998 9.293 102.145 9.523 102.504 9.526L108.376 9.576C108.823 9.579 108.962 9.347 108.906 9.029C107.756 1.991 101.876 0 96.465 0C91.062 0 84.552 1.518 84.09 8.239C84.074 8.499 84.068 8.755 84.068 9.006C83.208 7.218 81.968 5.576 80.37 4.122C77.42 1.462 73.742 0.037 69.731 0.002H69.598C67.682 0.002 65.807 0.355 64.024 1.055C62.2117 1.77185 60.5441 2.81095 59.102 4.122C57.589 5.498 56.394 7.042 55.54 8.719C54.268 1.936 48.486 0 43.156 0C38.196 0 32.302 1.283 31.016 6.7V1.323C31.0157 1.18526 30.9608 1.05325 30.8633 0.955951C30.7659 0.858648 30.6337 0.804 30.496 0.804H24.966C24.8283 0.804265 24.6963 0.859167 24.599 0.956658C24.5016 1.05415 24.447 1.18626 24.447 1.324V2.774C24.447 3.018 24.284 3.103 24.085 2.961C22.118 1.534 19.208 0.003 15.706 0.003C13.738 0.003 11.859 0.349 10.12 1.031C8.38 1.715 6.726 2.756 5.208 4.126C3.48 5.698 2.164 7.49 1.301 9.452C0.438 11.414 0 13.606 0 15.966C0 18.169 0.388 20.235 1.152 22.102C1.916 23.969 3.079 25.696 4.61 27.236C6.14 28.776 7.852 29.946 9.695 30.716C11.538 31.483 13.569 31.872 15.735 31.872C19.457 31.872 22.25 30.287 24.08 28.846C24.282 28.692 24.447 28.775 24.447 29.027V30.55C24.447 30.836 24.681 31.07 24.967 31.07H30.497C30.6347 31.0695 30.7665 31.0145 30.8638 30.9171C30.961 30.8196 31.0157 30.6877 31.016 30.55V25.42C33.623 31.55 40.266 31.875 43.518 31.875C48.954 31.875 55.223 30.125 56.467 24.757C57.065 25.6454 57.7472 26.4742 58.504 27.232C61.468 30.215 65.352 31.819 69.741 31.867H69.921C72.005 31.867 74.016 31.467 75.898 30.676C77.798 29.8726 79.5209 28.7023 80.968 27.232C82.0505 26.1528 82.975 24.926 83.714 23.588C85.685 31.491 93.277 31.876 96.826 31.876Z" fill="#DADCE0"/>
</g>
<defs>
<clipPath id="clip0_3734_67">
<rect width="110" height="32" fill="white"/>
</clipPath>
</defs>
</svg>
