<svg width="22" height="22" viewBox="0 0 22 22" fill="none" xmlns="http://www.w3.org/2000/svg">
<g clip-path="url(#clip0_2591_1338)">
<path d="M7.66413 0.72359C5.46598 1.48615 3.57031 2.9335 2.25555 4.85306C0.940785 6.77262 0.276236 9.06321 0.359511 11.3884C0.442786 13.7135 1.2695 15.9507 2.71821 17.7713C4.16693 19.5919 6.16128 20.8999 8.40834 21.5033C10.2301 21.9734 12.1387 21.994 13.9702 21.5634C15.6294 21.1908 17.1633 20.3936 18.4218 19.25C19.7316 18.0234 20.6823 16.463 21.1718 14.7366C21.7038 12.8591 21.7984 10.8847 21.4485 8.965H11.2185V13.2086H17.143C17.0246 13.8854 16.7709 14.5314 16.397 15.1079C16.0231 15.6843 15.5368 16.1795 14.9671 16.5636C14.2436 17.0421 13.4281 17.3641 12.5729 17.5089C11.7151 17.6684 10.8353 17.6684 9.97756 17.5089C9.1082 17.3292 8.28579 16.9703 7.56272 16.4553C6.4011 15.633 5.52888 14.4649 5.07053 13.1175C4.60443 11.7449 4.60443 10.2568 5.07053 8.88422C5.3968 7.92209 5.93615 7.04607 6.64834 6.32156C7.46336 5.47722 8.4952 4.87368 9.63064 4.57716C10.7661 4.28064 11.9613 4.3026 13.0851 4.64062C13.9629 4.91011 14.7657 5.38095 15.4294 6.01562C16.0975 5.35104 16.7643 4.68474 17.4301 4.01672C17.7738 3.6575 18.1485 3.31547 18.4871 2.94765C17.474 2.00488 16.2848 1.27128 14.9877 0.788903C12.6256 -0.0687707 10.0411 -0.0918199 7.66413 0.72359Z" fill="white"/>
<path d="M7.66414 0.723594C10.0409 -0.0923704 12.6255 -0.069928 14.9877 0.787188C16.2851 1.27284 17.4737 2.00997 18.4854 2.95625C18.1416 3.32406 17.779 3.66781 17.4284 4.02531C16.7615 4.69104 16.0952 5.35448 15.4295 6.01563C14.7658 5.38096 13.963 4.91011 13.0851 4.64063C11.9617 4.30141 10.7665 4.27819 9.63077 4.5735C8.49502 4.8688 7.46255 5.47123 6.64664 6.31469C5.93445 7.0392 5.39509 7.91522 5.06883 8.87734L1.50586 6.11875C2.78119 3.58972 4.98933 1.6552 7.66414 0.723594Z" fill="#E33629"/>
<path d="M0.560288 8.85156C0.751793 7.90246 1.06973 6.98333 1.5056 6.11875L5.06857 8.88422C4.60247 10.2568 4.60247 11.7449 5.06857 13.1175C3.88149 14.0342 2.69383 14.9554 1.5056 15.8813C0.414453 13.7093 0.0816723 11.2346 0.560288 8.85156Z" fill="#F8BD00"/>
<path d="M11.218 8.96328H21.448C21.798 10.883 21.7033 12.8574 21.1713 14.7348C20.6819 16.4613 19.7312 18.0217 18.4213 19.2483C17.2715 18.3511 16.1165 17.4608 14.9666 16.5636C15.5367 16.1791 16.0233 15.6834 16.3972 15.1063C16.7711 14.5292 17.0246 13.8826 17.1426 13.2052H11.218C11.2163 11.7923 11.218 10.3778 11.218 8.96328Z" fill="#587DBD"/>
<path d="M1.50391 15.8813C2.69214 14.9646 3.87979 14.0433 5.06687 13.1175C5.52614 14.4653 6.3996 15.6336 7.5625 16.4553C8.28783 16.968 9.11201 17.3238 9.9825 17.5003C10.8403 17.6598 11.7201 17.6598 12.5778 17.5003C13.4331 17.3555 14.2486 17.0336 14.972 16.555C16.1219 17.4522 17.2769 18.3425 18.4267 19.2397C17.1684 20.3839 15.6345 21.1817 13.9752 21.5548C12.1437 21.9854 10.235 21.9648 8.41328 21.4947C6.97246 21.11 5.62663 20.4318 4.46016 19.5027C3.22551 18.5224 2.21711 17.2871 1.50391 15.8813Z" fill="#319F43"/>
</g>
<defs>
<clipPath id="clip0_2591_1338">
<rect width="22" height="22" fill="white"/>
</clipPath>
</defs>
</svg>
