<svg width="104" height="37" viewBox="0 0 104 37" fill="none" xmlns="http://www.w3.org/2000/svg">
<g clip-path="url(#clip0_3734_65)">
<path d="M11.472 36.9847C8.37321 36.8619 5.83795 36.0154 3.85558 34.4433C3.47726 34.143 2.57575 33.2425 2.2733 32.8627C1.46942 31.8537 0.922893 30.8716 0.558362 29.7821C-0.56335 26.4281 0.0139549 22.0269 2.20963 17.1967C4.08958 13.0614 6.99044 8.96005 12.0514 3.27968C12.7969 2.44383 15.017 -0.000671387 15.0313 -0.000671387C15.0366 -0.000671387 14.9156 0.208554 14.7634 0.463336C13.4474 2.66365 12.3215 5.25541 11.7081 7.49917C10.7228 11.0995 10.8416 14.1891 12.0562 16.5849C12.894 18.2354 14.3304 19.665 15.9456 20.4553C18.7732 21.8383 22.913 21.9527 27.9687 20.7901C28.3168 20.7096 45.5648 16.1389 66.2979 10.6328C87.0311 5.12616 103.997 0.624359 104 0.628065C104.006 0.632841 55.8311 21.2112 30.8229 31.887C26.8624 33.5773 25.8033 34.0042 23.9414 34.6568C19.1818 36.3253 14.9183 37.1214 11.472 36.9847Z" fill="#DADCE0"/>
</g>
<defs>
<clipPath id="clip0_3734_65">
<rect width="104" height="37" fill="white"/>
</clipPath>
</defs>
</svg>
